<?xml version="1.0" encoding="utf-8"?>
<!-- Generator: Adobe Illustrator 26.0.1, SVG Export Plug-In . SVG Version: 6.00 Build 0)  -->
<svg version="1.1" id="Layer_1" xmlns="http://www.w3.org/2000/svg" xmlns:xlink="http://www.w3.org/1999/xlink" x="0px" y="0px"
	 viewBox="0 0 93.8 122.9" style="enable-background:new 0 0 93.8 122.9;" xml:space="preserve">
<style type="text/css">
	.st0{fill:#FFFFFF;}
</style>
<g>
	<path class="st0" d="M29,31.3v-9.7h0c0-4.7,1.9-9,5.1-12.1c3.1-3.1,7.4-5.1,12.1-5.1v0h0v0c4.7,0,9,1.9,12.1,5.1
		c3.1,3.1,5,7.4,5.1,12.1h0v9.9c-2.1,0.7-3.6,2.7-3.6,5c0,2.9,2.3,5.2,5.2,5.2c2.9,0,5.2-2.3,5.2-5.2c0-1.9-1-3.5-2.5-4.4V21.6h0
		c0-5.9-2.4-11.3-6.3-15.2C57.5,2.4,52.1,0,46.2,0v0h0v0c-5.9,0-11.3,2.4-15.2,6.3c-3.9,3.9-6.3,9.3-6.3,15.2h0v10.6
		c-1.3,1-2.1,2.5-2.1,4.2c0,2.9,2.4,5.2,5.2,5.2s5.2-2.3,5.2-5.2C33,33.9,31.3,31.9,29,31.3L29,31.3L29,31.3z M11,31.5h6.6
		c-0.9,1.6-1.4,3.5-1.4,5.4c0,0.7,0.1,1.3,0.2,2h-3.2l-5.6,76.6h78.7l-5.6-76.6h-4.6c0.1-0.6,0.2-1.3,0.2-2c0-2-0.5-3.8-1.4-5.4h7.9
		c1.4,0,2.6,0.6,3.6,1.5c0.9,0.9,1.4,2.1,1.5,3.4l5.9,81.2c0,0.2,0,0.3,0,0.3c0,1.4-0.6,2.6-1.5,3.5c-0.8,0.8-2,1.4-3.2,1.5
		c-0.2,0-0.3,0-0.4,0H5.1c-0.1,0-0.2,0-0.4,0c-1.2-0.1-2.4-0.6-3.2-1.5c-0.9-0.9-1.5-2.1-1.5-3.5c0-0.1,0-0.2,0-0.3l5.9-81.2
		C6,35,6.6,33.8,7.4,33C8.4,32.1,9.6,31.5,11,31.5L11,31.5z M37.8,31.5h16.8c-0.9,1.6-1.4,3.5-1.4,5.4c0,0.7,0.1,1.3,0.2,2H39
		c0.1-0.6,0.2-1.3,0.2-2C39.2,35,38.7,33.1,37.8,31.5L37.8,31.5z"/>
</g>
</svg>
