<?xml version="1.0" encoding="utf-8"?>
<!-- Generator: Adobe Illustrator 26.0.1, SVG Export Plug-In . SVG Version: 6.00 Build 0)  -->
<svg version="1.1" id="Layer_1" xmlns="http://www.w3.org/2000/svg" xmlns:xlink="http://www.w3.org/1999/xlink" x="0px" y="0px"
	 viewBox="0 0 122.9 111.5" style="enable-background:new 0 0 122.9 111.5;" xml:space="preserve">
<style type="text/css">
	.st0{fill-rule:evenodd;clip-rule:evenodd;fill:#FFFFFF;}
</style>
<path class="st0" d="M50.2,38.6c9.5,0,17.2,7.7,17.1,17.2c0,9.5-7.7,17.2-17.2,17.1c-9.5,0-17.1-7.7-17.1-17.2
	C33,46.3,40.7,38.6,50.2,38.6C50.2,38.6,50.2,38.6,50.2,38.6z M91.3,94v-8.7H67.5c2.1-1.9,4-3.9,5.6-6.2h21.3c1.7,0,3.1,1.4,3.1,3.1
	V94c4.7,1.7,7.1,6.9,5.4,11.5c-1.7,4.7-6.9,7.1-11.5,5.4c-4.7-1.7-7.1-6.9-5.4-11.5C86.8,96.9,88.8,94.9,91.3,94z M89.2,30.7H75.5
	c-1.3-2.2-2.8-4.2-4.5-6.2h15.1v-7c-4.7-1.7-7.1-6.8-5.5-11.5c1.7-4.7,6.8-7.1,11.5-5.5s7.1,6.8,5.5,11.5c-0.9,2.5-2.8,4.5-5.3,5.4
	v10.1C92.2,29.3,90.9,30.7,89.2,30.7C89.2,30.7,89.2,30.7,89.2,30.7z M122.9,15c0-5-4.1-9-9-9c-5,0-9,4.1-9,9c0,3.6,2.1,6.8,5.3,8.2
	v18H80.1c0.6,2,1,4.1,1.3,6.2h31.9c1.7,0,3.1-1.4,3.1-3.1V23.7C120.2,22.6,122.9,19,122.9,15z M122.7,64.9c0.1-5-3.9-9-8.9-9.1
	c-3.9,0-7.3,2.4-8.6,6H80.9c-0.4,2.1-1,4.1-1.7,6.2h26.1c1.6,4.7,6.8,7.2,11.5,5.5C120.3,72.2,122.8,68.8,122.7,64.9z M49.6,105.3
	H46c-3.4,0-6.1-2.7-6.1-6.1v-6.3c-3.5-0.8-6.9-2.1-10-3.8l-4.2,4.2c-2.4,2.4-6.3,2.4-8.6,0L12,88.2c-2.4-2.4-2.4-6.3,0-8.7l3.8-3.8
	c-2-3.2-3.5-6.7-4.5-10.3H6.1c-3.4,0-6.1-2.7-6.1-6.1v-7.2C0,48.8,2.7,46,6.1,46c0,0,0,0,0,0h5.1c0.9-3.7,2.4-7.2,4.4-10.4L12,31.9
	c-2.4-2.4-2.4-6.2,0-8.6l5.1-5.1c2.4-2.4,6.3-2.4,8.6,0l4,4c3.2-1.8,6.6-3.1,10.1-3.9v-6c0-3.4,2.8-6.1,6.1-6.1h7.2
	c3.2,0,5.9,2.6,6.1,5.8v20.5c-2.7-1-5.6-1.5-8.4-1.5c-0.4,0-0.9,0-1.3,0s-0.8,0-1.3,0c-13.6-0.3-24.8,10.5-25.1,24.1
	s10.5,24.8,24.1,25.1c0.3,0,0.7,0,1,0c0.4,0,0.8,0,1.3,0s0.8,0,1.3,0c2.9,0,5.7-0.5,8.4-1.5v20.8c-0.2,3.3-2.8,5.8-6.1,5.8H49.6z"/>
</svg>
