<?xml version="1.0" encoding="utf-8"?>
<!-- Generator: Adobe Illustrator 26.0.1, SVG Export Plug-In . SVG Version: 6.00 Build 0)  -->
<svg version="1.1" id="Layer_1" xmlns="http://www.w3.org/2000/svg" xmlns:xlink="http://www.w3.org/1999/xlink" x="0px" y="0px"
	 viewBox="0 0 121.8 122.9" style="enable-background:new 0 0 121.8 122.9;" xml:space="preserve">
<style type="text/css">
	.st0{fill-rule:evenodd;clip-rule:evenodd;fill:#FFFFFF;}
</style>
<g>
	<path class="st0" d="M30.1,0h61.7c3.4,0,6.2,2.8,6.2,6.2v6.5H23.8V6.2C23.8,2.8,26.6,0,30.1,0L30.1,0z M11.2,38.4h99.3
		c6.2,0,11.2,5,11.2,11.2v62c0,6.2-5.1,11.2-11.2,11.2H11.2c-6.2,0-11.2-5.1-11.2-11.2v-62C0,43.4,5.1,38.4,11.2,38.4L11.2,38.4z
		 M54.1,58.4l27.3,19c0.4,0.3,0.9,0.7,1.2,1.1c1.3,1.8,0.8,4.4-1,5.7L54.4,103c-0.7,0.6-1.6,0.9-2.6,0.9c-2.3,0-4.1-1.8-4.1-4.1
		V61.7h0c0-0.8,0.2-1.6,0.7-2.3C49.7,57.5,52.3,57.1,54.1,58.4L54.1,58.4z M18.1,18.8h85.5c3.4,0,6.2,2.8,6.2,6.2v6.7H11.9V25
		C11.9,21.6,14.7,18.8,18.1,18.8L18.1,18.8z"/>
</g>
</svg>
