<svg id="Layer_1" data-name="Layer 1" xmlns="http://www.w3.org/2000/svg" viewBox="0 0 894 894"><defs><style>.cls-1,.cls-4{fill:#fff;}.cls-1{stroke:#364651;stroke-miterlimit:10;stroke-width:17px;}.cls-2{fill:red;}.cls-3{fill:#364651;}</style></defs><circle class="cls-1" cx="447" cy="447" r="438.5"/><polygon class="cls-2" points="198 442 240 423 458 397 337 455 198 442"/><polygon class="cls-2" points="115.5 219.5 185.5 307.5 362.5 393.5 259.5 411.5 147.5 326.5 115.5 219.5"/><polygon class="cls-2" points="362.5 451.12 609.5 347.5 775.5 200.5 646.5 390.5 468.31 447 362.5 451.12"/><polygon class="cls-2" points="486.89 451.12 546.5 438.5 612.5 422.5 694.5 379.5 627.91 447 557.05 455 486.89 451.12"/><polygon class="cls-3" points="283.5 460.5 475.88 460.5 577.5 482.5 558.5 495.5 499.5 482.5 531.5 501.5 512.5 507.5 480.5 491.5 491.02 507.5 472.5 512.5 462.5 495.5 447 512.5 426.5 506.5 447 491.7 402.5 482.5 367.19 486.5 283.5 460.5"/><polygon class="cls-3" points="259.5 646.5 239 646.5 270.5 555.5 275.5 546.5 283.5 543.75 297.5 543.5 304.5 546.5 309.5 553.5 315.5 570.5 341.5 644.5 320.88 646.5 290.25 585.95 259.5 646.5"/><polygon class="cls-3" points="349.77 543.5 349.77 620.34 362.5 640.98 403.65 646.5 406.5 632.5 370.5 625.5 368.57 543.5 349.77 543.5"/><polygon class="cls-3" points="427.5 561.5 416.5 553.5 427.5 536.42 438.5 552.5 427.5 561.5"/><rect class="cls-3" x="416.5" y="571.5" width="19.48" height="75"/><rect class="cls-3" x="453.5" y="599.5" width="39.58" height="16.71"/><polygon class="cls-3" points="491.02 543.5 540.54 543.5 554.5 554.5 554.5 574.25 517.84 646.5 496.52 646.5 530.5 574.5 515.09 561.5 491.02 561.5 491.02 543.5"/><polygon class="cls-3" points="607.96 543.5 632.03 548.96 645.5 568.5 645.5 621.72 635.5 637.5 612.77 646.5 590.69 640.29 573.5 625.5 573.5 571.5 584.57 548.96 607.96 543.5"/><polygon class="cls-4" points="609.5 561.5 590.69 577 590.69 612.77 609.5 629.97 631.5 612.5 631.5 574.94 609.5 561.5"/></svg>